<?xml version="1.0" encoding="UTF-8" standalone="no"?>
<svg
   height="48"
   viewBox="0 -960 960 960"
   width="48"
   version="1.1"
   id="svg4"
   sodipodi:docname="not-going.svg"
   inkscape:version="1.1.2 (0a00cf5339, 2022-02-04)"
   xmlns:inkscape="http://www.inkscape.org/namespaces/inkscape"
   xmlns:sodipodi="http://sodipodi.sourceforge.net/DTD/sodipodi-0.dtd"
   xmlns="http://www.w3.org/2000/svg"
   xmlns:svg="http://www.w3.org/2000/svg">
  <defs
     id="defs8" />
  <sodipodi:namedview
     id="namedview6"
     pagecolor="#ffffff"
     bordercolor="#666666"
     borderopacity="1.0"
     inkscape:pageshadow="2"
     inkscape:pageopacity="0.0"
     inkscape:pagecheckerboard="0"
     showgrid="false"
     inkscape:zoom="18.1875"
     inkscape:cx="23.972509"
     inkscape:cy="20.701031"
     inkscape:window-width="2490"
     inkscape:window-height="1376"
     inkscape:window-x="1990"
     inkscape:window-y="27"
     inkscape:window-maximized="1"
     inkscape:current-layer="svg4" />
  <path
     d="M619.08-754q-30.08 0-51.58-21.42-21.5-21.421-21.5-51.5 0-30.08 21.42-51.58 21.421-21.5 51.5-21.5 30.08 0 51.58 21.42 21.5 21.421 21.5 51.5 0 30.08-21.42 51.58-21.421 21.5-51.5 21.5ZM422-548l89 95v247h-60v-200L315-525q-9-8-15-21.5t-6-27.5q0-14 6.5-27t14.5-21l119-119q8-8 22.5-14.5T487-762q16 0 30.5 6.5T540-741l78 78q27 27 64.538 46.5Q720.077-597 767-597v60q-59.564 0-107.782-22.5Q611-582 573-620l-40-40-111 112Zm-221.912 78Q283-470 339-413.912q56 56.087 56 139Q395-192 338.912-136q-56.087 56-139 56Q117-80 61-136.088q-56-56.087-56-139Q5-358 61.088-414q56.087-56 139-56ZM200-129q62 0 104-42t42-104q0-62-42-104t-104-42q-62 0-104 42T54-275q0 62 42 104t104 42Zm560.088-341Q843-470 899-413.912q56 56.087 56 139Q955-192 898.912-136q-56.087 56-139 56Q677-80 621-136.088q-56-56.087-56-139Q565-358 621.088-414q56.087-56 139-56ZM760-129q62 0 104-42t42-104q0-62-42-104t-104-42q-62 0-104 42t-42 104q0 62 42 104t104 42Z"
     id="path2" />
  <path
     style="fill:none;stroke:#000000;stroke-width:20px;stroke-linecap:butt;stroke-linejoin:miter;stroke-opacity:1"
     d="M 0.749302,-2.86392 958.62248,-957.88891"
     id="path43" />
</svg>
